<svg width="60" height="45" viewBox="0 0 60 45" fill="none" xmlns="http://www.w3.org/2000/svg">
  <path d="M10.4834 19L9.55176 15.9414H4.86719L3.93555 19H1L5.53516 6.09766H8.86621L13.4189 19H10.4834ZM8.90137 13.6562C8.04004 10.8848 7.55371 9.31738 7.44238 8.9541C7.33691 8.59082 7.26074 8.30371 7.21387 8.09277C7.02051 8.84277 6.4668 10.6973 5.55273 13.6562H8.90137ZM24.715 6.15039H27.466L23.0978 19H20.1271L15.7677 6.15039H18.5187L20.9357 13.7969C21.0705 14.248 21.2082 14.7754 21.3488 15.3789C21.4953 15.9766 21.5861 16.3926 21.6213 16.627C21.6857 16.0879 21.9054 15.1445 22.2804 13.7969L24.715 6.15039ZM36.389 19H33.6644V8.41797H30.1751V6.15039H39.8782V8.41797H36.389V19ZM55.8589 12.5576C55.8589 14.6846 55.3315 16.3193 54.2768 17.4619C53.2221 18.6045 51.7104 19.1758 49.7417 19.1758C47.7729 19.1758 46.2612 18.6045 45.2065 17.4619C44.1518 16.3193 43.6245 14.6787 43.6245 12.54C43.6245 10.4014 44.1518 8.76953 45.2065 7.64453C46.2671 6.51367 47.7846 5.94824 49.7593 5.94824C51.7339 5.94824 53.2427 6.5166 54.2856 7.65332C55.3345 8.79004 55.8589 10.4248 55.8589 12.5576ZM46.4809 12.5576C46.4809 13.9932 46.7534 15.0742 47.2983 15.8008C47.8432 16.5273 48.6577 16.8906 49.7417 16.8906C51.9155 16.8906 53.0024 15.4463 53.0024 12.5576C53.0024 9.66309 51.9214 8.21582 49.7593 8.21582C48.6753 8.21582 47.8579 8.58203 47.3071 9.31445C46.7563 10.041 46.4809 11.1221 46.4809 12.5576Z" fill="#48494D"/>
  <path d="M5.63965 40L2.74121 31.6533H2.68652C2.764 32.8929 2.80273 34.055 2.80273 35.1396V40H1.31934V30.0059H3.62305L6.39844 37.9561H6.43945L9.29688 30.0059H11.6074V40H10.0352V35.0576C10.0352 34.5609 10.0465 33.9137 10.0693 33.1162C10.0967 32.3187 10.1195 31.8356 10.1377 31.667H10.083L7.08203 40H5.63965ZM24.9323 34.9893C24.9323 36.6162 24.5244 37.8809 23.7087 38.7832C22.8975 39.6855 21.7468 40.1367 20.2565 40.1367C18.7481 40.1367 17.5882 39.6901 16.777 38.7969C15.9704 37.8991 15.5671 36.6253 15.5671 34.9756C15.5671 33.3258 15.9727 32.0589 16.7839 31.1748C17.5996 30.2907 18.7617 29.8486 20.2702 29.8486C21.7559 29.8486 22.9043 30.2975 23.7155 31.1953C24.5267 32.0931 24.9323 33.3577 24.9323 34.9893ZM17.3034 34.9893C17.3034 36.2197 17.5518 37.154 18.0485 37.792C18.5453 38.4255 19.2813 38.7422 20.2565 38.7422C21.2272 38.7422 21.9587 38.4277 22.4509 37.7988C22.9476 37.1699 23.196 36.2334 23.196 34.9893C23.196 33.7633 22.9499 32.8337 22.4577 32.2002C21.9701 31.5667 21.2409 31.25 20.2702 31.25C19.2904 31.25 18.5498 31.5667 18.0485 32.2002C17.5518 32.8337 17.3034 33.7633 17.3034 34.9893ZM32.3509 40H30.7171V31.4072H27.7777V30.0059H35.2904V31.4072H32.3509V40ZM47.5215 34.9893C47.5215 36.6162 47.1136 37.8809 46.2979 38.7832C45.4867 39.6855 44.336 40.1367 42.8457 40.1367C41.3373 40.1367 40.1774 39.6901 39.3662 38.7969C38.5596 37.8991 38.1563 36.6253 38.1563 34.9756C38.1563 33.3258 38.5619 32.0589 39.3731 31.1748C40.1888 30.2907 41.3509 29.8486 42.8594 29.8486C44.3451 29.8486 45.4935 30.2975 46.3047 31.1953C47.1159 32.0931 47.5215 33.3577 47.5215 34.9893ZM39.8926 34.9893C39.8926 36.2197 40.141 37.154 40.6377 37.792C41.1345 38.4255 41.8705 38.7422 42.8457 38.7422C43.8164 38.7422 44.5479 38.4277 45.0401 37.7988C45.5368 37.1699 45.7852 36.2334 45.7852 34.9893C45.7852 33.7633 45.5391 32.8337 45.0469 32.2002C44.5593 31.5667 43.8301 31.25 42.8594 31.25C41.8796 31.25 41.139 31.5667 40.6377 32.2002C40.141 32.8337 39.8926 33.7633 39.8926 34.9893Z" fill="#48494D"/>
</svg>
